<svg width="176" height="28" viewBox="0 0 176 28" fill="none" xmlns="http://www.w3.org/2000/svg">
<path d="M29.4991 15.6542C29.4991 16.3503 29.6289 16.9975 29.9014 17.608C30.174 18.2186 30.5373 18.7437 31.0046 19.1955C31.4718 19.6473 32.0298 20.0014 32.6788 20.2579C33.3277 20.5143 34.0155 20.6486 34.7553 20.6486C35.508 20.6486 36.1829 20.5143 36.7799 20.2457C37.3769 19.977 37.8831 19.6229 38.2854 19.1589C38.7007 18.707 39.0122 18.1698 39.2458 17.547C39.4664 16.9364 39.5832 16.277 39.5832 15.581V8.01003C39.5832 7.69254 39.6481 7.41168 39.7779 7.14304C39.9077 6.87439 40.0894 6.64238 40.31 6.447C40.5306 6.25162 40.7902 6.09287 41.0757 5.97076C41.3612 5.86086 41.6727 5.7998 41.9842 5.7998C42.3216 5.7998 42.6201 5.86086 42.8927 5.97076C43.1652 6.09287 43.4118 6.23941 43.6195 6.447C43.8271 6.64238 43.9958 6.87439 44.1126 7.14304C44.2294 7.41168 44.2814 7.70475 44.2814 8.01003V15.5199C44.2814 16.8265 44.0478 18.0599 43.5805 19.2199C43.1133 20.38 42.4514 21.3935 41.6078 22.2605C40.7642 23.1275 39.7649 23.8113 38.5839 24.312C37.4158 24.8127 36.131 25.0691 34.7293 25.0691C33.3407 25.0691 32.0298 24.8249 30.8229 24.3242C29.6159 23.8235 28.5517 23.1519 27.6562 22.2849C26.7607 21.4301 26.0469 20.4288 25.5277 19.281C25.0086 18.1331 24.749 16.912 24.749 15.6176V8.02224C24.749 7.70475 24.8139 7.42389 24.9307 7.15525C25.0475 6.8866 25.2162 6.65459 25.4369 6.45921C25.6445 6.26383 25.8911 6.10508 26.1896 5.98297C26.4751 5.87307 26.7866 5.81202 27.0981 5.81202C27.4226 5.81202 27.7211 5.87307 28.0066 5.98297C28.2921 6.10508 28.5517 6.25162 28.7723 6.45921C28.9929 6.65459 29.1616 6.8866 29.2784 7.15525C29.3953 7.42389 29.4601 7.71696 29.4601 8.02224V15.6542H29.4991Z" fill="black"/>
<path d="M53.0554 5.81253H60.6218C60.9592 5.81253 61.2707 5.87359 61.5562 5.98349C61.8417 6.1056 62.1013 6.26435 62.3219 6.45973C62.5426 6.66732 62.7113 6.89933 62.8281 7.18019C62.9449 7.44883 63.0098 7.7419 63.0098 8.0594C63.0098 8.36468 62.9449 8.64553 62.8281 8.91418C62.7113 9.18283 62.5296 9.41484 62.3219 9.61022C62.1013 9.8056 61.8547 9.96434 61.5562 10.0865C61.2707 10.1964 60.9592 10.2574 60.6218 10.2574H53.0554V15.435C53.0554 16.1554 53.1982 16.8393 53.4967 17.4742C53.7952 18.1092 54.1975 18.6587 54.7037 19.135C55.2098 19.6112 55.8068 19.9775 56.4947 20.2462C57.1825 20.5148 57.9223 20.6614 58.701 20.6614C59.4018 20.6614 60.0378 20.5637 60.6348 20.3805C61.2318 20.1973 61.7768 19.8921 62.283 19.4647C62.5296 19.2449 62.8021 19.0617 63.1136 18.9274C63.4121 18.7808 63.7366 18.7076 64.074 18.7076C64.6061 18.7076 65.0993 18.8907 65.5276 19.2571C65.7871 19.4769 65.9688 19.7333 66.0856 20.0386C66.1895 20.3439 66.2414 20.6491 66.2154 20.9666C66.1895 21.2841 66.1116 21.6016 65.9688 21.8947C65.8261 22.2 65.6184 22.4564 65.3589 22.6884C64.4893 23.4821 63.49 24.0805 62.3609 24.4835C61.2318 24.8864 60.0118 25.0818 58.701 25.0818C57.2604 25.0818 55.9236 24.8254 54.6647 24.3247C53.4059 23.8241 52.3157 23.128 51.3683 22.261C50.4208 21.394 49.6811 20.3561 49.136 19.1838C48.5909 17.9993 48.3184 16.7416 48.3184 15.3861V2.24686C48.3184 1.92937 48.3833 1.6363 48.513 1.36765C48.6428 1.09901 48.8115 0.854784 49.0322 0.647194C49.2528 0.439603 49.4994 0.280858 49.7979 0.170957C50.0834 0.061056 50.3949 0 50.7064 0C51.0308 0 51.3293 0.061056 51.6148 0.170957C51.9004 0.280858 52.147 0.451815 52.3546 0.647194C52.5623 0.854784 52.731 1.0868 52.8608 1.36765C52.9776 1.6363 53.0425 1.92937 53.0425 2.24686V5.81253H53.0554Z" fill="black"/>
<path d="M67.6943 15.3251C67.6943 13.9697 67.9669 12.7119 68.5249 11.5274C69.07 10.3429 69.8228 9.3172 70.7702 8.42579C71.7176 7.53437 72.8078 6.83833 74.0667 6.32546C75.3256 5.81259 76.6623 5.55615 78.077 5.55615C79.5176 5.55615 80.8673 5.81259 82.1262 6.32546C83.3851 6.83833 84.4882 7.53437 85.4227 8.42579C86.3571 9.3172 87.0969 10.3429 87.629 11.5274C88.1611 12.7119 88.4336 13.9697 88.4336 15.3251C88.4336 16.6561 88.1611 17.9261 87.629 19.1106C87.0969 20.2951 86.3571 21.333 85.4227 22.2244C84.4882 23.1159 83.3851 23.8119 82.1262 24.3248C80.8673 24.8376 79.5176 25.0941 78.077 25.0941C76.6494 25.0941 75.3126 24.8376 74.0667 24.3248C72.8078 23.8119 71.7176 23.1159 70.7702 22.2244C69.8228 21.333 69.083 20.2951 68.5249 19.1106C67.9669 17.9261 67.6943 16.6683 67.6943 15.3251ZM72.4055 15.3251C72.4055 16.0456 72.5482 16.7294 72.8467 17.3766C73.1452 18.0238 73.5475 18.5855 74.0667 19.074C74.5858 19.5624 75.1828 19.941 75.8577 20.2218C76.5326 20.5027 77.2723 20.637 78.051 20.637C78.8297 20.637 79.5695 20.5027 80.2573 20.2218C80.9452 19.941 81.5422 19.5624 82.0483 19.074C82.5545 18.5855 82.9568 18.0238 83.2423 17.3766C83.5279 16.7294 83.6836 16.0456 83.6836 15.3251C83.6836 14.5924 83.5408 13.8964 83.2423 13.2492C82.9568 12.602 82.5545 12.0403 82.0483 11.5641C81.5422 11.0878 80.9452 10.7093 80.2573 10.4284C79.5695 10.1476 78.8297 10.0132 78.051 10.0132C77.2853 10.0132 76.5585 10.1476 75.8707 10.4284C75.1828 10.7093 74.5858 11.0878 74.0667 11.5641C73.5475 12.0403 73.1452 12.602 72.8467 13.2492C72.5612 13.8964 72.4055 14.5924 72.4055 15.3251Z" fill="black"/>
<path d="M144.824 22.6518C144.824 22.957 144.772 23.2379 144.656 23.5065C144.539 23.7752 144.37 24.0072 144.163 24.2026C143.955 24.398 143.708 24.5445 143.436 24.6666C143.163 24.7765 142.865 24.8376 142.54 24.8376C142.203 24.8376 141.891 24.7765 141.593 24.6666C141.294 24.5567 141.035 24.398 140.827 24.2026C140.606 24.0072 140.438 23.7752 140.308 23.5065C140.178 23.2379 140.113 22.9448 140.113 22.6518V16.0455C140.113 14.6412 140.399 13.3224 140.97 12.0768C141.541 10.8313 142.32 9.75672 143.306 8.82866C144.292 7.90061 145.447 7.16794 146.758 6.63065C148.082 6.09335 149.471 5.82471 150.95 5.82471H150.989C151.768 5.82471 152.378 6.0323 152.806 6.44748C153.234 6.86266 153.442 7.38774 153.442 8.03494C153.442 8.35243 153.377 8.6455 153.247 8.91414C153.118 9.18279 152.936 9.42701 152.715 9.62239C152.495 9.81777 152.235 9.97652 151.937 10.0986C151.638 10.2085 151.327 10.2696 150.989 10.2696H150.95C150.12 10.2696 149.341 10.4161 148.588 10.7214C147.835 11.0267 147.186 11.4297 146.641 11.9547C146.096 12.4676 145.642 13.0782 145.318 13.7742C144.98 14.4702 144.811 15.2151 144.811 16.0089V22.6518H144.824Z" fill="#DA001B"/>
<path d="M159.477 17.3155C159.659 17.8162 159.931 18.2802 160.269 18.6954C160.606 19.1106 161.009 19.4647 161.45 19.7578C161.904 20.0509 162.397 20.2707 162.929 20.4294C163.461 20.5881 164.032 20.6614 164.629 20.6614C166.122 20.6614 167.303 20.2951 168.147 19.5624C168.432 19.367 168.718 19.2327 168.99 19.1472C169.263 19.0617 169.522 19.0129 169.769 19.0129C170.171 19.0129 170.535 19.1106 170.859 19.306C171.183 19.5013 171.443 19.7578 171.638 20.0753C171.78 20.2951 171.884 20.5271 171.949 20.7835C172.014 21.04 172.027 21.2964 171.988 21.5528C171.949 21.8093 171.858 22.0657 171.729 22.3221C171.586 22.5786 171.378 22.7984 171.106 23.006C170.781 23.2746 170.418 23.5433 170.015 23.7997C169.613 24.0561 169.146 24.2759 168.614 24.4591C168.082 24.6545 167.485 24.801 166.836 24.9231C166.174 25.033 165.434 25.0941 164.603 25.0941C163.163 25.0941 161.826 24.8376 160.554 24.3248C159.295 23.8119 158.192 23.1159 157.245 22.2244C156.297 21.333 155.558 20.3073 155 19.1228C154.454 17.9383 154.169 16.6806 154.169 15.3251C154.169 13.9697 154.441 12.6997 155 11.5152C155.545 10.3307 156.297 9.29278 157.245 8.41357C158.192 7.53437 159.282 6.83833 160.554 6.32546C161.813 5.81259 163.163 5.55615 164.603 5.55615C166.018 5.55615 167.368 5.81259 168.614 6.31325C169.873 6.81391 170.976 7.49773 171.923 8.36473C172.871 9.23172 173.623 10.2453 174.181 11.4297C174.74 12.602 175.025 13.8598 175.038 15.1908C175.038 15.8136 174.83 16.3264 174.402 16.7172C173.974 17.108 173.416 17.3033 172.715 17.3033H159.477V17.3155ZM170.223 13.6278C170.067 13.066 169.808 12.5654 169.47 12.1136C169.133 11.6618 168.718 11.2832 168.237 10.9657C167.757 10.6482 167.225 10.4162 166.628 10.2453C166.031 10.0865 165.408 10.001 164.733 10.001C164.071 10.001 163.435 10.0865 162.851 10.2575C162.267 10.4284 161.735 10.6726 161.268 10.9901C160.801 11.3076 160.399 11.6984 160.061 12.138C159.724 12.5776 159.477 13.0783 159.321 13.6278H170.223Z" fill="black"/>
<path d="M19.9347 11.5274C19.4026 10.3429 18.6628 9.3172 17.7284 8.42579C16.7939 7.53437 15.6908 6.83833 14.4319 6.32546C13.173 5.81259 11.8232 5.55615 10.3826 5.55615C8.95502 5.55615 7.61826 5.81259 6.37234 6.32546C5.11345 6.83833 4.02327 7.53437 3.07586 8.42579C2.12844 9.3172 1.38868 10.3429 0.830611 11.5274C0.285523 12.7119 0 13.9697 0 15.3251C0 16.6561 0.272544 17.9261 0.830611 19.1106C1.3757 20.2951 2.12844 21.333 3.07586 22.2244C4.02327 23.1159 5.11345 23.8119 6.37234 24.3248C7.63124 24.8376 8.968 25.0941 10.3826 25.0941C11.4988 25.0941 12.55 24.9109 13.5623 24.5324V20.8202C13.5623 20.3561 13.0562 20.0509 12.6019 20.2462H12.5889C11.9011 20.5271 11.1613 20.6614 10.3826 20.6614C9.60394 20.6614 8.86417 20.5271 8.1893 20.2462C7.50145 19.9654 6.90445 19.5868 6.3983 19.0984C5.89215 18.6099 5.47684 18.0482 5.17834 17.401C4.87984 16.7538 4.73708 16.07 4.73708 15.3495C4.73708 14.6169 4.87984 13.9208 5.17834 13.2736C5.47684 12.6264 5.87917 12.0647 6.3983 11.5885C6.91743 11.1123 7.51443 10.7337 8.20228 10.4528C8.89013 10.172 9.61692 10.0377 10.3826 10.0377C11.1613 10.0377 11.9011 10.172 12.5889 10.4528C13.2768 10.7337 13.8738 11.1123 14.3799 11.5885C14.8861 12.0647 15.2884 12.6264 15.574 13.2736C15.8595 13.9208 16.0152 14.6169 16.0152 15.3495C16.0152 15.4839 16.0022 15.606 15.9893 15.7403H16.0282L16.0801 23.2258C16.1061 23.2136 16.0801 23.2258 16.1061 23.2136C16.2358 23.6898 16.4954 24.0806 16.8848 24.398C17.2741 24.7155 17.7543 24.8743 18.3254 24.8743C18.6628 24.8743 18.9743 24.8132 19.2728 24.6911C19.5713 24.569 19.8308 24.4103 20.0385 24.2027C20.2591 23.9951 20.4278 23.7631 20.5446 23.4822C20.6614 23.2136 20.7263 22.9205 20.7263 22.603V15.3618C20.7393 13.9819 20.4668 12.7119 19.9347 11.5274Z" fill="black"/>
<path d="M135.298 11.5274C134.766 10.3429 134.026 9.3172 133.092 8.42579C132.157 7.53437 131.054 6.83833 129.795 6.32546C128.536 5.81259 127.187 5.55615 125.746 5.55615C124.318 5.55615 122.982 5.81259 121.736 6.32546C120.477 6.83833 119.387 7.53437 118.439 8.42579C117.492 9.3172 116.752 10.3429 116.194 11.5274C115.649 12.7119 115.363 13.9697 115.363 15.3251C115.363 16.6561 115.636 17.9261 116.194 19.1106C116.739 20.2951 117.492 21.333 118.439 22.2244C119.387 23.1159 120.477 23.8119 121.736 24.3248C122.995 24.8376 124.331 25.0941 125.746 25.0941C126.784 25.0941 127.784 24.9231 128.731 24.5934V20.6858C128.731 20.3195 128.329 20.0753 127.965 20.2218C127.965 20.2218 127.965 20.2218 127.952 20.2218C127.264 20.5027 126.525 20.637 125.746 20.637C124.967 20.637 124.227 20.5027 123.553 20.2218C122.865 19.941 122.268 19.5624 121.762 19.074C121.255 18.5855 120.84 18.0238 120.542 17.3766C120.243 16.7294 120.1 16.0456 120.1 15.3251C120.1 14.5924 120.243 13.8964 120.542 13.2492C120.84 12.602 121.242 12.0403 121.762 11.5641C122.281 11.0878 122.878 10.7093 123.566 10.4284C124.253 10.1476 124.98 10.0132 125.746 10.0132C126.525 10.0132 127.264 10.1476 127.952 10.4284C128.64 10.7093 129.237 11.0878 129.743 11.5641C130.249 12.0403 130.652 12.602 130.937 13.2492C131.223 13.8964 131.378 14.5924 131.378 15.3251C131.378 15.7891 131.379 23.2502 131.469 23.1769C131.599 23.6532 131.859 24.0439 132.248 24.3614C132.637 24.6789 133.118 24.8376 133.689 24.8376C134.026 24.8376 134.338 24.7766 134.636 24.6545C134.935 24.5324 135.194 24.3736 135.402 24.166C135.622 23.9584 135.791 23.7264 135.908 23.4456C136.025 23.1769 136.09 22.8839 136.09 22.5664V15.3251C136.103 13.9819 135.83 12.7119 135.298 11.5274Z" fill="#DA001B"/>
<path d="M112.041 21.3944C112.625 21.834 113.235 22.237 113.741 22.7743C114.001 23.0551 114.026 23.2627 113.741 23.5436C113.157 24.1175 112.56 24.667 111.885 25.1677C111.587 25.3875 111.457 25.3386 111.236 25.07C110.289 23.9099 108.77 23.4825 107.395 23.9465C105.993 24.4228 105.071 25.6927 105.188 27.1703C105.227 27.6832 105.084 27.8175 104.565 27.8297C103.696 27.8663 102.839 27.8663 101.97 27.7931C101.58 27.7564 101.438 27.6587 101.476 27.2436C101.606 25.6439 100.841 24.4106 99.4389 23.8611C98.2319 23.3848 96.4409 23.6046 95.4545 24.899C95.2339 25.1921 95.0782 25.1066 94.8575 24.9356C94.0918 24.3251 93.391 23.6413 92.755 22.9086C92.5344 22.6521 92.6382 22.5422 92.8718 22.3591C94.2086 21.3211 94.6109 19.9535 94.0139 18.5736C93.4429 17.2548 92.171 16.5588 90.4189 16.6687C90.1075 16.6931 90.0036 16.6198 89.9777 16.3512C89.8868 15.3865 89.9258 14.4218 90.0296 13.4571C90.0685 13.1152 90.2243 13.103 90.5228 13.1396C92.1451 13.3106 93.5078 12.6145 94.1178 11.3324C94.7537 10.0013 94.4163 8.60925 93.1574 7.55909C92.8589 7.30266 92.8459 7.11949 93.0795 6.86305C93.2742 6.65546 93.4688 6.44787 93.6635 6.24028C93.7414 6.22807 93.7673 6.19144 93.7544 6.11817C94.2346 5.73962 94.7407 5.36107 95.2079 4.9581C95.4156 4.78715 95.5324 4.81157 95.6881 5.00695C96.0905 5.54424 96.6615 5.87394 97.2974 6.13038C99.4518 7.00959 101.918 5.44655 101.84 3.23632V3.22411C101.931 3.12642 101.879 3.04095 101.84 2.95547C101.749 2.5525 101.827 2.34491 102.359 2.32048C103.164 2.29606 103.955 2.28385 104.747 2.32048C105.149 2.34491 105.292 2.49144 105.318 2.86999C105.487 5.36107 103.903 7.91322 101.438 8.96338C100.127 9.51288 98.9197 10.1845 98.0761 11.3079C97.531 12.0284 97.0898 12.7977 96.96 13.6891C96.9081 13.8967 96.8172 14.0921 96.7913 14.3119C96.1164 18.9399 101.087 22.7132 105.746 21.1013C106.862 20.7228 107.979 20.4908 109.16 20.5762C110.198 20.6373 111.119 21.0158 112.041 21.3944Z" fill="#DA001B"/>
<path d="M104.799 25.2525C104.89 25.9485 105.007 26.6446 104.968 27.3528C104.942 27.7191 104.799 27.8901 104.397 27.9023C103.553 27.9267 102.71 27.9145 101.866 27.8168C101.49 27.7802 101.438 27.6581 101.477 27.3162C101.672 25.863 100.932 24.5564 99.608 23.9703C98.2583 23.372 96.649 23.665 95.6237 24.7762C95.2603 25.167 95.0656 25.167 94.6763 24.8251C94.0403 24.2756 93.4303 23.7017 92.8723 23.0667C92.6257 22.7858 92.5997 22.6149 92.9372 22.3462C94.235 21.3083 94.6243 19.9162 94.0403 18.5974C93.5342 17.4617 92.1066 16.4116 90.4453 16.6802C90.069 16.7413 90.017 16.5825 89.9911 16.3017C89.9002 15.3614 89.9262 14.4089 90.03 13.4687C90.069 13.139 90.2247 13.1268 90.5232 13.1634C92.2493 13.3221 93.5601 12.6261 94.1831 11.2462C94.7801 9.92742 94.3907 8.58419 93.0669 7.5096C92.8333 7.31422 92.8074 7.20432 93.0021 6.99673C93.6639 6.25184 94.4167 5.59244 95.2084 4.98188C95.4939 4.77429 95.6107 4.85977 95.8054 5.09178C96.8306 6.28848 98.3102 6.70366 99.7118 6.203C101.165 5.69013 101.97 4.48122 101.866 2.89376C101.84 2.51522 101.97 2.38089 102.333 2.35647C102.632 2.34426 102.93 2.31984 103.216 2.30763C103.281 2.35647 103.333 2.34426 103.372 2.2832C104.008 2.33205 104.631 2.3931 105.267 2.42974C105.539 2.44195 105.617 2.53964 105.565 2.78386C105.448 3.43106 105.604 4.04162 105.864 4.65218C106.733 6.70366 109.64 7.24095 111.25 5.62907L111.263 5.61686C111.392 5.60465 111.431 5.51917 111.47 5.42148C111.704 5.07957 111.924 4.98188 112.314 5.32379C112.898 5.83666 113.469 6.36175 114.001 6.92346C114.273 7.20432 114.261 7.3997 113.988 7.69277C112.236 9.57329 109.199 10.3182 106.668 9.41455C105.318 8.9261 103.969 8.5964 102.528 8.82841C101.607 8.97494 100.711 9.23138 99.9454 9.76867C99.7508 9.87857 99.5431 9.96405 99.3614 10.0984C95.403 12.9314 96.0909 18.8904 100.594 20.8564C101.672 21.3205 102.632 21.9066 103.411 22.7614C104.073 23.4941 104.436 24.3733 104.799 25.2525Z" fill="#DA001B"/>
</svg>
